# xmcd
#
# Track frame offsets:
#	150
#	16862
#	32245
#	43491
#	60926
#	73400
#	90292
#	103560
#	122466
#	134815
#	149899
#	165694
#	183593
#
# Disc length: 2755 seconds
#
# Revision: 1
# Processed by: cddbd v1.5.2PL0 Copyright (c) Steve Scherf et al.
# Submitted via: audiograbber 1.83.01
#
DISCID=c00ac10d
DTITLE=Kathy Durkin - Home Away From Home
DYEAR=1900
DGENRE=
TTITLE0=Home Away From Home
TTITLE1=Hard Times
TTITLE2=Heavens Just A Sin Away
TTITLE3=Dreaming My Dreams
TTITLE4=Lord I Hope This Day Is Good
TTITLE5=Girl From Yesterday
TTITLE6=Cheap Whiskey
TTITLE7=My Fathers House
TTITLE8=Sweetest Of All
TTITLE9=On A Day Like This
TTITLE10=I Will Lead The Parade
TTITLE11=Always Up For You
TTITLE12=The Old Man
EXTD=
EXTT0=
EXTT1=
EXTT2=
EXTT3=
EXTT4=
EXTT5=
EXTT6=
EXTT7=
EXTT8=
EXTT9=
EXTT10=
EXTT11=
EXTT12=
PLAYORDER=
